<?xml version="1.0" encoding="UTF-8" standalone="no"?>
<!-- Created with Inkscape (http://www.inkscape.org/) -->

<svg
   width="91.779778mm"
   height="91.779778mm"
   viewBox="0 0 91.779778 91.779778"
   version="1.1"
   id="svg1"
   inkscape:version="1.3 (0e150ed, 2023-07-21)"
   sodipodi:docname="icon.svg"
   xmlns:inkscape="http://www.inkscape.org/namespaces/inkscape"
   xmlns:sodipodi="http://sodipodi.sourceforge.net/DTD/sodipodi-0.dtd"
   xmlns="http://www.w3.org/2000/svg"
   xmlns:svg="http://www.w3.org/2000/svg">
  <sodipodi:namedview
     id="namedview1"
     pagecolor="#505050"
     bordercolor="#eeeeee"
     borderopacity="1"
     inkscape:showpageshadow="0"
     inkscape:pageopacity="0"
     inkscape:pagecheckerboard="0"
     inkscape:deskcolor="#d1d1d1"
     inkscape:document-units="mm"
     inkscape:zoom="0.83815769"
     inkscape:cx="99.026712"
     inkscape:cy="340.62803"
     inkscape:window-width="1600"
     inkscape:window-height="882"
     inkscape:window-x="0"
     inkscape:window-y="25"
     inkscape:window-maximized="0"
     inkscape:current-layer="layer1" />
  <defs
     id="defs1">
    <inkscape:path-effect
       effect="powerclip"
       id="path-effect3"
       is_visible="true"
       lpeversion="1"
       inverse="true"
       flatten="false"
       hide_clip="false"
       message="Utilise la règle de remplissage « fill-rule: evenodd » de la boîte de dialogue &lt;b&gt;Fond et contour&lt;/b&gt; en l'absence de résultat de mise à plat après une conversion en chemin." />
    <clipPath
       clipPathUnits="userSpaceOnUse"
       id="clipPath3">
      <path
         style="color:#000000;display:none;fill:#822b2b;stroke-width:1;stroke-linecap:round;stroke-linejoin:round;-inkscape-stroke:none"
         d="m -255.92187,42.291016 a 5.9999999,5.9999999 0 0 0 -5.50586,6.455079 c 0,0 3.00182,37.807564 7.85546,77.183595 2.42683,19.68801 5.31034,39.76356 8.55665,55.86523 1.62315,8.05084 3.3267,15.09573 5.1875,20.75 1.86079,5.65427 3.20405,9.89391 7.27734,13.21289 a 6.0006,6.0006 0 0 0 9.62695,-3.26562 c 8.26756,-34.83217 15.28249,-57.98241 21.1836,-72.52149 5.9011,-14.53907 11.25081,-19.80079 12.49023,-20.29101 0.61971,-0.24511 0.36203,-0.28357 1.23047,0.21484 0.86844,0.49841 2.39289,1.90608 3.97656,3.96485 3.16733,4.11753 6.51438,10.42525 10.35352,15.64648 3.92946,5.34407 8.2593,8.80503 13.49023,9.11133 5.23093,0.3063 9.21097,-2.81639 11.81445,-5.81446 2.60348,-2.99806 4.46252,-6.35875 6.0625,-9.20703 1.59999,-2.84827 3.24706,-5.32322 3.30665,-5.38281 1.60743,-1.60744 1.76432,-1.22335 1.34375,-1.25586 -0.42058,-0.0325 -0.0559,-0.089 0.94531,0.93555 2.00245,2.04902 4.31969,7.17753 10.04883,10.51953 2.80504,1.63628 5.9737,1.61153 8.31445,1.03516 2.34075,-0.57638 4.18176,-1.59793 5.74023,-2.61329 3.11695,-2.03071 5.29688,-4.36914 5.29688,-4.36914 a 5.9999999,5.9999999 0 0 0 -0.20899,-8.48242 5.9999999,5.9999999 0 0 0 -8.48242,0.20899 c 0,0 -1.45864,1.48188 -3.15625,2.58789 -0.73931,0.48166 -1.38287,0.74668 -1.79297,0.88476 -0.94325,-0.75476 -3.49818,-4.39503 -7.17773,-8.16015 -1.926,-1.97079 -4.65812,-4.20496 -8.60156,-4.50977 -3.94345,-0.30481 -7.73421,1.71272 -10.75586,4.73438 -2.55931,2.55931 -3.72021,5.2078 -5.28321,7.99023 -1.56299,2.78243 -3.22119,5.55974 -4.66015,7.2168 -1.43897,1.65705 -2.02638,1.70467 -2.05274,1.70312 -0.0264,-0.002 -1.64541,-0.32612 -4.52343,-4.24023 -2.96835,-4.03696 -6.35906,-10.45954 -10.50977,-15.85547 -2.07536,-2.69797 -4.35488,-5.24263 -7.51562,-7.05664 -3.16075,-1.81401 -7.67393,-2.52567 -11.61524,-0.9668 -7.88261,3.11775 -12.87893,11.37046 -19.19726,26.9375 -5.18252,12.76863 -10.92289,31.32683 -17.40625,56.83203 -1.00763,-3.82847 -2.01127,-8.02894 -2.98633,-12.86523 -3.13572,-15.55315 -6.00562,-35.43782 -8.41211,-54.96094 -4.81299,-39.046238 -7.80078,-76.666014 -7.80078,-76.666014 a 5.9999999,5.9999999 0 0 0 -6.45703,-5.50586 z"
         id="path3" />
      <path
         id="lpe_path-effect3"
         style="color:#000000;fill:#822b2b;stroke-width:1;stroke-linecap:round;stroke-linejoin:round;-inkscape-stroke:none"
         class="powerclip"
         d="M -329.87548,-6.0438614 H -65.818398 V 258.01322 H -329.87548 Z m 73.95361,48.3348774 a 5.9999999,5.9999999 0 0 0 -5.50586,6.455079 c 0,0 3.00182,37.807564 7.85546,77.183595 2.42683,19.68801 5.31034,39.76356 8.55665,55.86523 1.62315,8.05084 3.3267,15.09573 5.1875,20.75 1.86079,5.65427 3.20405,9.89391 7.27734,13.21289 a 6.0006,6.0006 0 0 0 9.62695,-3.26562 c 8.26756,-34.83217 15.28249,-57.98241 21.1836,-72.52149 5.9011,-14.53907 11.25081,-19.80079 12.49023,-20.29101 0.61971,-0.24511 0.36203,-0.28357 1.23047,0.21484 0.86844,0.49841 2.39289,1.90608 3.97656,3.96485 3.16733,4.11753 6.51438,10.42525 10.35352,15.64648 3.92946,5.34407 8.2593,8.80503 13.49023,9.11133 5.23093,0.3063 9.21097,-2.81639 11.81445,-5.81446 2.60348,-2.99806 4.46252,-6.35875 6.0625,-9.20703 1.59999,-2.84827 3.24706,-5.32322 3.30665,-5.38281 1.60743,-1.60744 1.76432,-1.22335 1.34375,-1.25586 -0.42058,-0.0325 -0.0559,-0.089 0.94531,0.93555 2.00245,2.04902 4.31969,7.17753 10.04883,10.51953 2.80504,1.63628 5.9737,1.61153 8.31445,1.03516 2.34075,-0.57638 4.18176,-1.59793 5.74023,-2.61329 3.11695,-2.03071 5.29688,-4.36914 5.29688,-4.36914 a 5.9999999,5.9999999 0 0 0 -0.20899,-8.48242 5.9999999,5.9999999 0 0 0 -8.48242,0.20899 c 0,0 -1.45864,1.48188 -3.15625,2.58789 -0.73931,0.48166 -1.38287,0.74668 -1.79297,0.88476 -0.94325,-0.75476 -3.49818,-4.39503 -7.17773,-8.16015 -1.926,-1.97079 -4.65812,-4.20496 -8.60156,-4.50977 -3.94345,-0.30481 -7.73421,1.71272 -10.75586,4.73438 -2.55931,2.55931 -3.72021,5.2078 -5.28321,7.99023 -1.56299,2.78243 -3.22119,5.55974 -4.66015,7.2168 -1.43897,1.65705 -2.02638,1.70467 -2.05274,1.70312 -0.0264,-0.002 -1.64541,-0.32612 -4.52343,-4.24023 -2.96835,-4.03696 -6.35906,-10.45954 -10.50977,-15.85547 -2.07536,-2.69797 -4.35488,-5.24263 -7.51562,-7.05664 -3.16075,-1.81401 -7.67393,-2.52567 -11.61524,-0.9668 -7.88261,3.11775 -12.87893,11.37046 -19.19726,26.9375 -5.18252,12.76863 -10.92289,31.32683 -17.40625,56.83203 -1.00763,-3.82847 -2.01127,-8.02894 -2.98633,-12.86523 -3.13572,-15.55315 -6.00562,-35.43782 -8.41211,-54.96094 -4.81299,-39.046238 -7.80078,-76.666014 -7.80078,-76.666014 a 5.9999999,5.9999999 0 0 0 -6.45703,-5.50586 z" />
    </clipPath>
  </defs>
  <g
     inkscape:label="Calque 1"
     inkscape:groupmode="layer"
     id="layer1"
     transform="translate(134.7413,-63.498574)">
    <path
       style="fill:#46788c;fill-opacity:1;stroke-width:7.99999;stroke-linecap:round;stroke-linejoin:round;stroke-dasharray:none"
       id="path2"
       sodipodi:type="arc"
       sodipodi:cx="-197.84694"
       sodipodi:cy="125.98468"
       sodipodi:rx="127.02854"
       sodipodi:ry="127.02854"
       sodipodi:start="1.1133712"
       sodipodi:end="1.1111517"
       sodipodi:open="true"
       sodipodi:arc-type="arc"
       d="M -141.74613,239.95375 A 127.02854,127.02854 0 0 1 -311.78486,182.14872 127.02854,127.02854 0 0 1 -254.07419,12.077936 127.02854,127.02854 0 0 1 -83.971412,69.694231 127.02854,127.02854 0 0 1 -141.49331,239.82896"
       clip-path="url(#clipPath3)"
       inkscape:path-effect="#path-effect3"
       transform="matrix(0.36125653,0,0,0.36125653,-17.377916,63.875676)" />
  </g>
</svg>
